<?xml version="1.0" standalone="no"?>
<!DOCTYPE svg PUBLIC "-//W3C//DTD SVG 20010904//EN"
 "http://www.w3.org/TR/2001/REC-SVG-20010904/DTD/svg10.dtd">
<svg version="1.0" xmlns="http://www.w3.org/2000/svg"
 width="260.000000pt" height="260.000000pt" viewBox="0 0 260.000000 260.000000"
 preserveAspectRatio="xMidYMid meet">
<metadata>
Created by potrace 1.11, written by Peter Selinger 2001-2013
</metadata>
<g transform="translate(0.000000,260.000000) scale(0.100000,-0.100000)"
fill="#000000" stroke="none">
<path d="M20 1300 l0 -1300 1282 2 1283 3 0 1298 0 1297 -1282 0 -1283 0 0
-1300z m2346 1110 l31 0 0 -1114 0 -1113 -1094 0 c-995 0 -1093 1 -1093 16 -1
9 -1 509 -1 1111 l-1 1095 84 5 c60 4 1611 4 2074 0z"/>
<path d="M1896 2080 c-2 -3 -2 -136 -2 -297 1 -191 -2 -289 -9 -285 -5 3 -30
20 -55 38 -134 96 -332 98 -470 6 -173 -117 -234 -336 -146 -527 34 -74 121
-159 203 -198 63 -29 76 -32 168 -32 116 1 178 20 260 83 l51 38 -1 -53 c-1
-47 1 -53 19 -54 12 0 36 -1 54 -2 21 -1 34 3 37 13 2 8 4 299 4 646 l-1 631
-55 -1 c-30 -1 -56 -3 -57 -6z m-160 -615 c141 -82 199 -258 131 -397 -77
-157 -256 -222 -405 -148 -65 33 -109 76 -144 143 -19 35 -23 58 -23 132 0 81
3 95 30 144 84 151 269 208 411 126z"/>
<path d="M858 1596 c-21 -7 -49 -21 -63 -30 -32 -21 -35 -20 -35 7 0 20 -5 22
-55 23 -54 0 -55 0 -56 -28 -5 -248 0 -761 9 -767 6 -3 30 -6 54 -5 l43 1 5
284 c4 240 8 289 22 314 38 69 100 108 170 107 46 -1 88 -22 142 -73 l43 -38
0 73 c1 40 -2 78 -6 83 -3 6 -26 21 -51 34 -55 29 -165 36 -222 15z"/>
<path d="M1200 590 l0 -50 228 -1 c125 0 306 -1 403 -1 98 0 181 2 187 6 5 3
9 25 8 48 l-2 43 -412 3 -412 3 0 -51z"/>
</g>
</svg>
